<svg xmlns="http://www.w3.org/2000/svg" viewBox="0 0 336.64 49.41"><defs><style>.cls-1{fill:#ffb500;}</style></defs><g id="Layer_2" data-name="Layer 2"><g id="Layer_1-2" data-name="Layer 1"><path class="cls-1" d="M0,.57c0,1.08,1.36,1.86,1.79,2.8l.64,1.28L19.76,48.77H22L39.82,3.37c.35-1,2.36-1.72,2.36-2.8H36.66c0,1.08,1.94,1.58,1.15,3.23C32.73,17.69,26.93,31.15,21.7,45L5.94,4.87,5.59,3.8C4.94,2.15,6.66,1.65,6.66.57Z"/><path class="cls-1" d="M61.23,0C49.77,0,40.46,11.39,40.46,24.71s9.31,24.7,20.77,24.7S82,38,82,24.71,72.68,0,61.23,0Zm-17,24.71c0-12.61,7.44-23.42,17-23.42s17,10.81,17,23.42-7.45,23.41-17,23.41S44.26,37.24,44.26,24.71Z"/><path class="cls-1" d="M86.51,4V45.33c0,1.86-1.72,2.36-1.72,3.44h6.94c0-1.08-1.79-1.58-1.79-3.44V29.43c.72-.07,4.44-.07,8.17-.07s7.44,0,8.09.07a12.11,12.11,0,0,0,2.29-.21l8.67,16.32c1.43,2.87,2.29,3.23,5.51,3.23h.93a.39.39,0,0,0,.36-.22c.07-.14.07-.36-.07-.43A9.23,9.23,0,0,1,120.38,44L112,28.21A14.44,14.44,0,0,0,106.2.57H84.79c0,1.08,1.72,1.58,1.72,3.44Zm17.11-2.15a13.14,13.14,0,1,1,0,26.28H90V1.86Z"/><path class="cls-1" d="M126.82,3.58c.72,0,.72-.43,1.29-.79a6.53,6.53,0,0,1,3.65-.93h13.75V45.33c0,1.86-1.72,2.36-1.72,3.44h7c0-1.08-1.79-1.58-1.79-3.44V1.86h13.82a6.51,6.51,0,0,1,3.65.93c.58.36.58.79,1.29.79,0-1.36-.28-3-2-3H128.83c-1.72,0-2,1.65-2,3Z"/><path class="cls-1" d="M203.88,48.77c1.71,0,2-1.65,2-3-.72,0-.72.43-1.29.79a6.51,6.51,0,0,1-3.65.93H175.73V21.27h20.05c1.87,0,2.3,1.72,3.37,1.72v-4.8c-1.07,0-1.5,1.79-3.37,1.79H175.73V1.86h22.49a7.09,7.09,0,0,1,3.58.93c.57.36.64.79,1.29.79,0-1.36-.22-3-1.94-3H170.51c0,1.08,1.71,1.58,1.71,3.44V45.33c0,1.86-1.71,2.36-1.71,3.44Z"/><path class="cls-1" d="M207.74.57c.36,1.51,1.86,1.86,2.51,2.8l.93,1.28c4.87,7,9.74,13.9,14.54,20.84l-13.47,19.2-.86,1.36c-.64.93-2.86,1.21-3.22,2.72h5.73c.36-1.08-1.43-1.51-.21-3.15l13.1-18.69c4,5.87,8.09,11.67,12.25,17.54l.64,1.15c1.08,1.64-.57,2.07-.29,3.15h7.45c-.36-1.22-1.86-1.86-2.5-2.8l-15.47-22L243.19,3.37c.64-1,3-1.36,3.29-2.8h-5.8c-.35,1.08,1.44,1.58.22,3.23l-13,18.61L215.55,4.87,214.9,3.8c-1.07-1.65.58-2.15.29-3.23Z"/><path class="cls-1" d="M256.58.57h-6.94c0,1.08,1.71,1.58,1.71,3.44V45.33c0,1.86-1.71,2.36-1.71,3.44h6.94c0-1.08-1.79-1.58-1.79-3.44V4C254.79,2.15,256.58,1.65,256.58.57Z"/><path class="cls-1" d="M261.88,46.05c-.64.86-2.08,1.5-2.51,2.72h37.17c1.72,0,1.93-1.65,1.93-3-.64,0-.71.43-1.29.79a6.43,6.43,0,0,1-3.58.93H266.46a1.61,1.61,0,0,1,.08-1.86l.71-1.15C276.56,31.15,285.73,18,295,4.65L296,3.37c.64-.94,2.15-1.29,2.5-2.8H264.6c-1.72,0-1.93,1.65-2,3,.71,0,.71-.43,1.36-.79a6.43,6.43,0,0,1,3.58-.93h23.84a1.59,1.59,0,0,1-.07,1.94l-.64,1.07Z"/><path class="cls-1" d="M334.64,48.77c1.72,0,2-1.65,2-3-.71,0-.71.43-1.29.79a6.51,6.51,0,0,1-3.65.93H306.49V21.27h20.05c1.87,0,2.3,1.72,3.37,1.72v-4.8c-1.07,0-1.5,1.79-3.37,1.79H306.49V1.86H329a7.06,7.06,0,0,1,3.58.93c.57.36.64.79,1.29.79,0-1.36-.22-3-1.93-3H301.27C301.27,1.65,303,2.15,303,4V45.33c0,1.86-1.72,2.36-1.72,3.44Z"/></g></g></svg>