<svg xmlns="http://www.w3.org/2000/svg" viewBox="0 0 338.64 51.41"><defs><style>.cls-1{fill:#ffb500;}</style></defs><g id="Layer_2" data-name="Layer 2"><g id="Layer_1-2" data-name="Layer 1"><g id="Layer_2-2" data-name="Layer 2"><g id="Layer_1-2-2" data-name="Layer 1-2"><path class="cls-1" d="M20.08,50.77,2.5,6l-.6-1.2A4.57,4.57,0,0,0,1.24,4,3.67,3.67,0,0,1,0,1.57v-1H8.66v1a2.78,2.78,0,0,1-.78,1.75c-.45.56-.52.7-.36,1.11l.37,1.13,14.8,37.67C24.76,37.81,26.93,32.4,29,27.15c3-7.4,6-15,8.83-22.69.21-.45.17-.54-.33-1.1a2.71,2.71,0,0,1-.88-1.79v-1h7.52v1a3.2,3.2,0,0,1-1.59,2.34,3.75,3.75,0,0,0-.83.79L23.68,50.77Z"/><path class="cls-1" d="M1,1.57c0,1.08,1.36,1.86,1.79,2.8l.64,1.28L20.76,49.77H23L40.82,4.37c.35-1,2.36-1.72,2.36-2.8H37.66c0,1.08,1.94,1.58,1.15,3.23C33.73,18.69,27.93,32.15,22.7,46L6.94,5.87,6.59,4.8C5.94,3.15,7.66,2.65,7.66,1.57Z"/><path class="cls-1" d="M62.23,51.41c-11.8,0-21.77-11.77-21.77-25.7S50.43,0,62.23,0,84,11.77,84,25.71,74,51.41,62.23,51.41Zm-16-25.7c0,12.36,7.16,22.41,16,22.41s16-10,16-22.41-7.18-22.42-16-22.42c-8.65,0-15.72,9.67-16,21.7Z"/><path class="cls-1" d="M62.23,1C50.77,1,41.46,12.39,41.46,25.71s9.31,24.7,20.77,24.7S83,39,83,25.71,73.68,1,62.23,1Zm-17,24.71c0-12.61,7.44-23.42,17-23.42s17,10.81,17,23.42-7.45,23.41-17,23.41-17-10.88-17-23.41Z"/><path class="cls-1" d="M123.67,50.77c-3.5,0-4.77-.5-6.4-3.78l-8.33-15.67a13.7,13.7,0,0,1-1.69.11h-.16c-.59-.06-4.52-.06-8-.06-2.69,0-5.66,0-7.17,0V46.33a2.15,2.15,0,0,0,.81,1.53,2.82,2.82,0,0,1,1,1.91v1H84.79v-1a2.84,2.84,0,0,1,.94-1.9,2.18,2.18,0,0,0,.78-1.54V5a2.18,2.18,0,0,0-.78-1.54,2.84,2.84,0,0,1-.94-1.9v-1H107.2a15.44,15.44,0,0,1,14.35,21,15.29,15.29,0,0,1-7.18,8.1l7.89,14.87a8.28,8.28,0,0,0,3.14,3.73,1.31,1.31,0,0,1,.45,1.74,1.38,1.38,0,0,1-1.24.77Zm-19-22.64a12.14,12.14,0,0,0,0-24.28H92V28.13Z"/><path class="cls-1" d="M87.51,5V46.33c0,1.86-1.72,2.36-1.72,3.44h6.94c0-1.08-1.79-1.58-1.79-3.44V30.43c.72-.07,4.44-.07,8.17-.07s7.44,0,8.09.07a12.51,12.51,0,0,0,2.29-.21l8.67,16.32c1.43,2.87,2.29,3.23,5.51,3.23h.93a.4.4,0,0,0,.36-.22c.07-.14.07-.36-.07-.43A9.2,9.2,0,0,1,121.38,45L113,29.21a14.44,14.44,0,0,0-5.8-27.64H85.79c0,1.08,1.72,1.58,1.72,3.44Zm17.11-2.15a13.14,13.14,0,0,1,0,26.28H91V2.86Z"/><path class="cls-1" d="M143.79,50.77v-1a2.84,2.84,0,0,1,.94-1.9,2.18,2.18,0,0,0,.78-1.54V3.86h-13a5.5,5.5,0,0,0-2.85.8,1.19,1.19,0,0,0-.25.22,1.94,1.94,0,0,1-1.54.71h-1v-1c0-3.48,1.88-4,3-4h36.93c1.12,0,3,.52,3,4v1h-1a2,2,0,0,1-1.55-.7,1,1,0,0,0-.27-.24,5.52,5.52,0,0,0-2.84-.79H151V46.33a2.15,2.15,0,0,0,.81,1.53,2.82,2.82,0,0,1,1,1.91v1Z"/><path class="cls-1" d="M127.82,4.58c.72,0,.72-.43,1.29-.79a6.51,6.51,0,0,1,3.65-.93h13.75V46.33c0,1.86-1.72,2.36-1.72,3.44h7c0-1.08-1.79-1.58-1.79-3.44V2.86h13.82a6.51,6.51,0,0,1,3.65.93c.58.36.58.79,1.29.79,0-1.36-.28-3-2-3H129.83c-1.72,0-2,1.65-2,3Z"/><path class="cls-1" d="M170.51,50.77v-1a2.84,2.84,0,0,1,.94-1.9,2.17,2.17,0,0,0,.77-1.54V5a2.17,2.17,0,0,0-.77-1.54,2.84,2.84,0,0,1-.94-1.9v-1h31.64c1.34,0,2.94.69,2.94,4v1h-1a2,2,0,0,1-1.52-.69,2.21,2.21,0,0,0-.3-.25,6.1,6.1,0,0,0-3-.78H177.73V20h19.05a2,2,0,0,0,1.48-.8,2.72,2.72,0,0,1,1.89-1h1V25h-1a2.73,2.73,0,0,1-1.87-.95,2.05,2.05,0,0,0-1.5-.77H177.73V47.49h24.5a5.49,5.49,0,0,0,2.84-.8,1.19,1.19,0,0,0,.25-.22,1.94,1.94,0,0,1,1.56-.71h1v1c0,3.48-1.88,4-3,4Z"/><path class="cls-1" d="M204.88,49.77c1.71,0,2-1.65,2-3-.72,0-.72.43-1.29.79a6.51,6.51,0,0,1-3.65.93H176.73V22.27h20.05c1.87,0,2.3,1.72,3.37,1.72v-4.8c-1.07,0-1.5,1.79-3.37,1.79H176.73V2.86h22.49a7.14,7.14,0,0,1,3.58.93c.57.36.64.79,1.29.79,0-1.36-.22-3-1.94-3H171.51c0,1.08,1.71,1.58,1.71,3.44V46.33c0,1.86-1.71,2.36-1.71,3.44Z"/><path class="cls-1" d="M239.62,50.77l-.2-.75a2.29,2.29,0,0,1,.41-1.87c.27-.46.31-.53,0-1L239.19,46c-3.49-4.93-7.51-10.61-11.41-16.31l-12.27,17.5c-.34.46-.31.49,0,.94a2.21,2.21,0,0,1,.38,2l-.23.68H207.9l.3-1.23a4.05,4.05,0,0,1,2.41-2.45,3.46,3.46,0,0,0,1-.61l.84-1.32L225.5,26.49c-2.67-3.87-5.37-7.72-8.08-11.59q-3-4.32-6.06-8.68L210.44,5a3.19,3.19,0,0,0-.78-.69,4.28,4.28,0,0,1-1.89-2.47l-.3-1.23H217l.2.74a2.39,2.39,0,0,1-.39,1.89c-.28.48-.34.58,0,1.06l.66,1.09,11.5,16.32L241.08,4.23c.35-.47.31-.53,0-1a2.25,2.25,0,0,1-.37-2L241,.57h7.75l-.24,1.2c-.26,1.3-1.43,1.93-2.37,2.44a3.7,3.7,0,0,0-1.06.7L231.09,25l15.07,21.42a4.41,4.41,0,0,0,.87.85,4.73,4.73,0,0,1,1.77,2.25l.38,1.28Z"/><path class="cls-1" d="M208.74,1.57c.36,1.51,1.86,1.86,2.51,2.8l.93,1.28c4.87,7,9.74,13.9,14.54,20.84l-13.47,19.2-.86,1.36c-.64.93-2.86,1.21-3.22,2.72h5.73c.36-1.08-1.43-1.51-.21-3.15l13.1-18.69c4,5.87,8.09,11.67,12.25,17.54l.64,1.15c1.08,1.64-.57,2.07-.29,3.15h7.45c-.36-1.22-1.86-1.86-2.5-2.8L229.87,25l14.32-20.6c.64-1,3-1.36,3.29-2.8h-5.8c-.35,1.08,1.44,1.58.22,3.23l-13,18.61L216.55,5.87,215.9,4.8c-1.07-1.65.58-2.15.29-3.23Z"/><path class="cls-1" d="M249.64,50.77v-1a2.84,2.84,0,0,1,.94-1.9,2.17,2.17,0,0,0,.77-1.54V5a2.17,2.17,0,0,0-.77-1.54,2.84,2.84,0,0,1-.94-1.9v-1h8.94v1a2.83,2.83,0,0,1-1,1.92,2.13,2.13,0,0,0-.8,1.51V46.33a2.15,2.15,0,0,0,.81,1.53,2.78,2.78,0,0,1,1,1.91v1Z"/><path class="cls-1" d="M257.58,1.57h-6.94c0,1.08,1.71,1.58,1.71,3.44V46.33c0,1.86-1.71,2.36-1.71,3.44h6.94c0-1.08-1.79-1.58-1.79-3.44V5C255.79,3.15,257.58,2.65,257.58,1.57Z"/><path class="cls-1" d="M259,50.77l.47-1.33a5.26,5.26,0,0,1,1.83-2.23,5.21,5.21,0,0,0,.82-.76L290.85,5.29l.64-1.08.05-.06a.58.58,0,0,0,.13-.3H268.3a5.47,5.47,0,0,0-2.82.78,1.57,1.57,0,0,0-.36.29,2,2,0,0,1-1.52.65h-1.05l.05-1.05c0-1,.21-3.95,3-3.95h35.16l-.29,1.23a4.21,4.21,0,0,1-1.88,2.46,3.52,3.52,0,0,0-.76.67l-1,1.34c-9.24,13.3-18.41,26.45-27.72,39.78l-.71,1.15,0,0a.51.51,0,0,0-.11.25h26.62a5.5,5.5,0,0,0,2.82-.79,1.8,1.8,0,0,0,.3-.26,2,2,0,0,1,1.51-.68h1v1c0,3.31-1.59,4-2.93,4Z"/><path class="cls-1" d="M262.88,47.05c-.64.86-2.08,1.5-2.51,2.72h37.17c1.72,0,1.93-1.65,1.93-3-.64,0-.71.43-1.29.79a6.45,6.45,0,0,1-3.58.93H267.46a1.61,1.61,0,0,1,.08-1.86l.71-1.15C277.56,32.15,286.73,19,296,5.65l1-1.28c.64-.94,2.15-1.29,2.5-2.8H265.6c-1.72,0-1.93,1.65-2,3,.71,0,.71-.43,1.36-.79a6.45,6.45,0,0,1,3.58-.93h23.84a1.59,1.59,0,0,1-.07,1.94l-.64,1.07Z"/><path class="cls-1" d="M301.28,50.77v-1a2.84,2.84,0,0,1,.94-1.9,2.18,2.18,0,0,0,.78-1.54V5a2.18,2.18,0,0,0-.78-1.53,2.8,2.8,0,0,1-1-1.89v-1h31.67c1.34,0,2.93.69,2.93,4v1h-1a2,2,0,0,1-1.52-.69,2.21,2.21,0,0,0-.3-.25,6.06,6.06,0,0,0-3-.78H308.49V20h19.05a2,2,0,0,0,1.48-.8,2.72,2.72,0,0,1,1.89-1h1V25h-1A2.73,2.73,0,0,1,329,24a2.05,2.05,0,0,0-1.5-.77H308.49V47.49H333a5.49,5.49,0,0,0,2.84-.8.92.92,0,0,0,.26-.23,2,2,0,0,1,1.55-.7h1v1c0,3.48-1.88,4-3,4Z"/><path class="cls-1" d="M335.64,49.77c1.72,0,2-1.65,2-3-.71,0-.71.43-1.29.79a6.51,6.51,0,0,1-3.65.93H307.49V22.27h20.05c1.87,0,2.3,1.72,3.37,1.72v-4.8c-1.07,0-1.5,1.79-3.37,1.79H307.49V2.86H330a7.14,7.14,0,0,1,3.58.93c.57.36.64.79,1.29.79,0-1.36-.22-3-1.93-3H302.27C302.27,2.65,304,3.15,304,5V46.33c0,1.86-1.72,2.36-1.72,3.44Z"/></g></g></g></g></svg>