<svg xmlns="http://www.w3.org/2000/svg" viewBox="0 0 379.05 51.41"><defs><style>.cls-1{fill:#ffb500;}</style></defs><g id="Layer_2" data-name="Layer 2"><g id="Layer_1-2" data-name="Layer 1"><g id="Layer_2-2" data-name="Layer 2"><g id="Layer_1-2-2" data-name="Layer 1-2"><path class="cls-1" d="M20.08,50.77,2.5,6l-.6-1.2A4.57,4.57,0,0,0,1.24,4,3.67,3.67,0,0,1,0,1.57v-1H8.66v1a2.78,2.78,0,0,1-.78,1.75c-.45.56-.52.7-.36,1.11l.37,1.13,14.8,37.67C24.76,37.81,26.93,32.4,29,27.15c3-7.4,6-15,8.83-22.69.21-.45.17-.54-.33-1.1a2.71,2.71,0,0,1-.88-1.79v-1h7.52v1a3.2,3.2,0,0,1-1.59,2.34,3.75,3.75,0,0,0-.83.79L23.68,50.77Z"/><path class="cls-1" d="M71,51.41c-11.8,0-21.77-11.77-21.77-25.7S59.15,0,71,0,92.72,11.77,92.72,25.71,82.75,51.41,71,51.41ZM55,25.71c0,12.36,7.16,22.41,16,22.41s16-10,16-22.41S79.77,3.29,71,3.29C62.3,3.29,55.23,13,55,25Z"/><path class="cls-1" d="M136.6,50.77c-3.5,0-4.77-.5-6.4-3.78l-8.33-15.67a13.7,13.7,0,0,1-1.69.11H120c-.59-.06-4.52-.06-8-.06-2.69,0-5.66,0-7.17,0V46.33a2.15,2.15,0,0,0,.81,1.53,2.82,2.82,0,0,1,1,1.91v1H97.72v-1a2.84,2.84,0,0,1,.94-1.9,2.18,2.18,0,0,0,.78-1.54V5a2.18,2.18,0,0,0-.78-1.54,2.84,2.84,0,0,1-.94-1.9v-1h22.41a15.44,15.44,0,0,1,14.35,21,15.29,15.29,0,0,1-7.18,8.1l7.89,14.87a8.28,8.28,0,0,0,3.14,3.73,1.31,1.31,0,0,1,.45,1.74,1.38,1.38,0,0,1-1.24.77Zm-19-22.64a12.14,12.14,0,1,0,0-24.28H104.93V28.13Z"/><path class="cls-1" d="M160.9,50.77v-1a2.84,2.84,0,0,1,.94-1.9,2.18,2.18,0,0,0,.78-1.54V3.86h-13a5.53,5.53,0,0,0-2.86.8,1.17,1.17,0,0,0-.24.22,2,2,0,0,1-1.55.71h-1v-1c0-3.48,1.88-4,3-4h36.93c1.12,0,3,.52,3,4v1h-1a2,2,0,0,1-1.55-.7,1.46,1.46,0,0,0-.27-.24,5.52,5.52,0,0,0-2.84-.79h-13.1V46.33a2.13,2.13,0,0,0,.8,1.53,2.79,2.79,0,0,1,1,1.91v1Z"/><path class="cls-1" d="M191.87,50.77v-1a2.88,2.88,0,0,1,.93-1.9,2.18,2.18,0,0,0,.78-1.54V5a2.18,2.18,0,0,0-.78-1.54,2.88,2.88,0,0,1-.93-1.9v-1h31.64c1.34,0,2.94.69,2.94,4v1h-1a2,2,0,0,1-1.52-.69,1.79,1.79,0,0,0-.31-.25,6.06,6.06,0,0,0-3-.78H199.09V20h19a2,2,0,0,0,1.48-.8,2.7,2.7,0,0,1,1.89-1h1V25h-1a2.76,2.76,0,0,1-1.88-.95,2,2,0,0,0-1.49-.77h-19V47.49h24.49a5.5,5.5,0,0,0,2.85-.8,1.51,1.51,0,0,0,.25-.22,1.94,1.94,0,0,1,1.56-.71h1v1c0,3.48-1.88,4-3,4Z"/><path class="cls-1" d="M266.38,50.77l-.2-.75a2.33,2.33,0,0,1,.41-1.87c.27-.46.32-.53,0-1L266,46c-3.5-4.93-7.51-10.61-11.42-16.31l-12.27,17.5c-.34.46-.31.49,0,.94a2.21,2.21,0,0,1,.38,2l-.23.68h-7.71l.29-1.23a4.05,4.05,0,0,1,2.41-2.45,3.46,3.46,0,0,0,1-.61l.84-1.32,13.09-18.67c-2.67-3.87-5.37-7.72-8.08-11.59-2-2.88-4-5.77-6.06-8.68L237.2,5a3.19,3.19,0,0,0-.78-.69,4.28,4.28,0,0,1-1.89-2.47L234.24.57h9.48l.2.74a2.39,2.39,0,0,1-.39,1.89c-.28.48-.34.58,0,1.06l.67,1.09,11.49,16.32L267.84,4.23c.35-.47.31-.53,0-1a2.22,2.22,0,0,1-.38-2l.22-.69h7.75l-.24,1.2c-.26,1.3-1.43,1.93-2.37,2.44a3.63,3.63,0,0,0-1.05.7L257.85,25l15.07,21.42a4.71,4.71,0,0,0,.87.85,4.73,4.73,0,0,1,1.77,2.25l.38,1.28Z"/><path class="cls-1" d="M280.94,50.77v-1a2.84,2.84,0,0,1,.94-1.9,2.21,2.21,0,0,0,.77-1.54V5a2.21,2.21,0,0,0-.77-1.54,2.84,2.84,0,0,1-.94-1.9v-1h8.94v1a2.83,2.83,0,0,1-1,1.92,2.09,2.09,0,0,0-.8,1.51V46.33a2.15,2.15,0,0,0,.81,1.53,2.82,2.82,0,0,1,1,1.91v1Z"/><path class="cls-1" d="M294.88,50.77l.47-1.33a5.26,5.26,0,0,1,1.83-2.23,5.21,5.21,0,0,0,.82-.76L326.77,5.29l.64-1.08,0-.06a.51.51,0,0,0,.13-.3H304.22a5.49,5.49,0,0,0-2.82.78,1.57,1.57,0,0,0-.36.29,2,2,0,0,1-1.52.65h-1l0-1.05c.05-1,.21-3.95,3-3.95h35.16L336.4,1.8a4.22,4.22,0,0,1-1.89,2.46,3.52,3.52,0,0,0-.76.67l-1,1.34C323.47,19.57,314.3,32.72,305,46.05l-.71,1.15,0,0a.62.62,0,0,0-.11.25h26.62a5.48,5.48,0,0,0,2.82-.79,2.38,2.38,0,0,0,.31-.26,2,2,0,0,1,1.5-.68h1v1c0,3.31-1.59,4-2.93,4Z"/><path class="cls-1" d="M341.69,50.77v-1a2.84,2.84,0,0,1,.94-1.9,2.18,2.18,0,0,0,.78-1.54V5a2.18,2.18,0,0,0-.78-1.53,2.8,2.8,0,0,1-.95-1.89v-1h31.67c1.34,0,2.93.69,2.93,4v1h-1a2,2,0,0,1-1.52-.69,2.21,2.21,0,0,0-.3-.25,6.06,6.06,0,0,0-3-.78H348.9V20H368a2,2,0,0,0,1.48-.8,2.72,2.72,0,0,1,1.89-1h1V25h-1a2.78,2.78,0,0,1-1.88-.95,2,2,0,0,0-1.49-.77H348.9V47.49h24.5a5.49,5.49,0,0,0,2.84-.8.92.92,0,0,0,.26-.23,2,2,0,0,1,1.55-.7h1v1c0,3.48-1.88,4-3,4Z"/></g></g></g></g></svg>